<svg xmlns="http://www.w3.org/2000/svg" viewBox="0 0 24 24">
  <path d="M.045 18.02c.072-.116.187-.124.348-.022 3.636 2.11 7.594 3.166 11.87 3.166 2.852 0 5.668-.533 8.447-1.595l.315-.14c.138-.06.234-.1.293-.13.226-.088.39-.046.525.13.12.174.09.336-.12.48-.256.19-.6.41-1.006.654-1.244.743-2.64 1.316-4.185 1.726-1.53.406-3.045.61-4.516.61-2.265 0-4.41-.396-6.435-1.187-2.02-.794-3.82-1.91-5.43-3.35-.1-.074-.15-.15-.15-.22 0-.047.02-.09.05-.13zm6.565-6.218c0-1.005.247-1.863.743-2.577.495-.71 1.17-1.25 2.04-1.615.796-.335 1.756-.575 2.912-.72.39-.046 1.033-.103 1.92-.174v-.37c0-.93-.105-1.558-.3-1.875-.302-.43-.78-.65-1.44-.65h-.182c-.48.046-.896.196-1.246.46-.35.27-.575.63-.675 1.096-.06.3-.206.465-.435.51l-2.52-.315c-.248-.06-.372-.18-.372-.39 0-.046.007-.09.022-.15.247-1.29.855-2.25 1.82-2.88.976-.616 2.1-.975 3.39-1.05h.54c1.65 0 2.957.434 3.888 1.29.135.15.27.3.405.48.12.165.224.314.283.45.075.134.15.33.195.57.06.254.105.42.135.51.03.09.062.232.076.39.01.12.02.39.02.81v7.424c0 .155.02.3.06.435.03.135.09.273.16.405.075.145.153.26.226.345l.31.405c.09.135.136.256.136.36 0 .12-.06.226-.18.314-1.2 1.05-1.86 1.62-1.963 1.71-.165.135-.375.15-.63.045-.195-.166-.375-.332-.526-.496l-.31-.465c-.09-.15-.166-.314-.226-.496l-.075-.27c-.61.886-1.242 1.526-1.89 1.922-.646.39-1.392.585-2.233.585-.975 0-1.782-.27-2.415-.81-.634-.544-.95-1.235-.95-2.067v-.06zm3.285 0c0 .467.122.84.357 1.11.238.27.57.404.988.404.046 0 .136-.015.27-.044.18-.034.36-.105.54-.21.225-.12.422-.27.596-.435.226-.24.435-.477.63-.704.195-.24.3-.405.3-.508v-2.553c-.404.044-.766.105-1.065.18-.676.195-1.214.48-1.605.855-.39.375-.585.84-.585 1.395v.51zm8.49-.63c.285 0 .51.09.674.255.166.18.248.39.248.645 0 .27-.085.492-.254.645-.17.166-.392.254-.675.254-.3 0-.526-.088-.684-.254-.165-.172-.24-.39-.24-.66 0-.24.082-.45.24-.63.164-.166.39-.255.684-.255h.007zm-11.97-6.218c.27 0 .494.09.667.256.175.18.262.39.262.645 0 .27-.087.48-.262.645-.173.165-.397.254-.667.254-.285 0-.51-.09-.676-.254-.165-.165-.24-.375-.24-.645 0-.255.075-.465.24-.645.166-.165.39-.255.676-.255z"/>
</svg> 