<svg xmlns="http://www.w3.org/2000/svg" viewBox="0 0 24 24">
  <path d="M23.997 6.124c0-.738-.065-1.47-.24-2.19-.317-1.31-1.062-2.31-2.18-3.043C21.003.517 20.373.285 19.7.164c-.517-.093-1.038-.137-1.564-.14-.05-.002-.1-.005-.15-.005H5.988c-.107.003-.215.005-.322.012-.707.041-1.397.152-2.062.373-1.287.424-2.282 1.15-2.969 2.297-.369.61-.619 1.367-.757 1.845-.148.51-.267 1.033-.344 1.566-.05.343-.08.686-.098 1.038-.015.288-.032.572-.032.86V16.956c.002.276.017.548.03.825.023.487.07.977.152 1.457.161.947.429 1.837.868 2.66.59 1.102 1.42 1.907 2.49 2.515.812.47 1.693.79 2.627.936.35.055.705.095 1.06.12.183.013.37.024.554.027.186.004.374.006.558.006h11.03c.18 0 .36-.002.54-.006.17-.003.336-.013.503-.025.35-.025.7-.063 1.043-.118.912-.143 1.804-.448 2.62-.922.962-.553 1.723-1.312 2.282-2.273.353-.604.61-1.248.785-1.928.13-.503.21-1.019.27-1.535.022-.185.038-.372.05-.56.014-.188.02-.377.02-.57V10.547c0-.18-.006-.362-.02-.54l.02-.003zm-4.026 9.487c-.41.732-.898 1.325-1.523 1.785-.797.585-1.68.912-2.64 1.05-.265.037-.534.064-.804.08-.544.034-1.089.033-1.634.025H6.532c-.165-.002-.332-.006-.496-.016-.67-.034-1.328-.13-1.968-.333-.89-.282-1.664-.762-2.27-1.465-.402-.47-.697-1.004-.905-1.595-.16-.456-.26-.93-.32-1.414-.053-.428-.082-.856-.09-1.287V8.563c.004-.44.034-.877.094-1.313.067-.49.177-.967.35-1.43.215-.582.517-1.103.888-1.57.64-.734 1.417-1.245 2.304-1.56.636-.226 1.29-.337 1.956-.377.204-.012.41-.02.62-.027h11.31c.413.004.825.037 1.235.094.8.112 1.54.375 2.2.844.51.362.918.818 1.24 1.36.224.38.39.787.515 1.214.088.3.15.604.19.913.042.31.07.626.075.936v7.535c-.02.772-.122 1.52-.343 2.24l.02.006z"/>
</svg> 