<svg xmlns="http://www.w3.org/2000/svg" viewBox="0 0 24 24">
  <path d="M11.977 23.999c-6.615 0-11.977-5.362-11.977-11.998C0 5.365 5.362.002 11.977.002c6.616 0 11.979 5.363 11.979 11.999 0 6.636-5.363 11.998-11.979 11.998zm3.254-17.97c-.116.328-2.004.614-2.939.817-.935.201-2.7.416-2.7.416s-.181 3.824-.246 4.687c-.064.864-.155 3.34-.155 3.34 0 .48-.335.881-.67 1.08-.412.241-1.103.416-1.509.416-.671 0-1.258-.176-1.56-.512-.224-.241-.335-.561-.335-.881 0-.321.111-.641.335-.881.447-.481 1.137-.641 1.738-.801.559-.161 1.341-.321 1.761-.401.112-.024.224-.024.336-.024.111-.944.223-3.946.223-3.946s.067-1.206.112-1.607c.045-.401.156-.641.447-.721.447-.081 1.474-.241 1.9-.321.424-.08.848-.161 1.272-.241.223-.048.67-.12.893-.12.447 0 .67.24.67.561 0 .12-.037.281-.112.441l-.411 1.688z"/>
</svg> 