<svg xmlns="http://www.w3.org/2000/svg" viewBox="0 0 24 24">
  <path d="M1.175 12.225c-.051 0-.094.046-.101.1l-.233 2.154.233 2.105c.007.058.05.098.101.098.05 0 .09-.04.099-.098l.255-2.105-.27-2.154c-.009-.06-.05-.1-.1-.1m-.899.828c-.051 0-.092.047-.1.1l-.173 1.326.173 1.313c.008.054.049.097.1.097.05 0 .091-.043.099-.097l.195-1.313-.195-1.326c-.008-.053-.049-.1-.099-.1m1.8-1.578c-.061 0-.113.051-.12.112l-.21 2.563.225 2.487c.008.062.059.109.12.109.06 0 .11-.047.119-.109l.254-2.487-.254-2.563c-.009-.061-.059-.112-.12-.112m.95-1.304c-.072 0-.132.057-.142.133l-.2 3.734.2 3.742c.01.076.07.13.142.13.071 0 .131-.054.14-.13l.227-3.742-.227-3.734c-.009-.076-.069-.133-.14-.133m1.011-.945c-.083 0-.151.063-.163.153l-.188 4.659.188 4.66c.012.09.08.151.163.151.08 0 .15-.062.161-.151l.213-4.66-.213-4.659c-.012-.09-.081-.153-.161-.153m1.071-.815c-.091 0-.167.069-.178.169l-.176 5.458.19 5.45c.01.1.087.168.178.168.09 0 .164-.068.175-.168l.215-5.45-.215-5.458c-.011-.1-.085-.169-.175-.169m1.124-.761c-.102 0-.186.074-.199.188l-.164 6.214.164 6.201c.013.114.097.187.199.187.1 0 .183-.073.196-.187l.185-6.201-.185-6.214c-.013-.114-.096-.188-.196-.188m2.495-1.871c-.124 0-.23.089-.243.224l-.15 8.844.15 8.823c.013.136.119.223.243.223.12 0 .223-.087.236-.223l.17-8.823-.17-8.844c-.013-.135-.116-.224-.236-.224m-1.25.674c-.113 0-.21.081-.224.206l-.156 8.188.157 8.167c.013.124.11.204.223.204.11 0 .204-.08.217-.204l.176-8.167-.176-8.188c-.013-.125-.107-.206-.217-.206m-4.87 3.525c-.051 0-.094.043-.101.093l-.234 5.048.234 4.957c.007.051.05.088.101.088.05 0 .088-.037.095-.088l.267-4.957-.267-5.048c-.007-.05-.045-.093-.095-.093m11.222-8.365c-.151 0-.276.115-.291.271l-.127 16.279.127 8.928c.015.158.14.271.291.271.148 0 .272-.113.287-.271l.144-8.928-.144-16.279c-.015-.156-.139-.271-.287-.271"/>
</svg> 